<svg width="32" height="32" viewBox="0 0 32 32" fill="none" xmlns="http://www.w3.org/2000/svg">
<path fill-rule="evenodd" clip-rule="evenodd" d="M3.46578 7.99845C8.27901 7.93314 12.6645 6.09673 16 3.11133C19.3356 6.09672 23.721 7.93314 28.5342 7.99845C28.709 9.03968 28.8 10.1093 28.8 11.2002C28.8 19.56 23.4572 26.6719 16 29.3077C8.54279 26.6719 3.20001 19.56 3.20001 11.2002C3.20001 10.1093 3.29099 9.03968 3.46578 7.99845ZM21.9314 13.9316C22.5562 13.3067 22.5562 12.2937 21.9314 11.6688C21.3065 11.044 20.2935 11.044 19.6686 11.6688L14.4 16.9375L12.3314 14.8688C11.7065 14.244 10.6935 14.244 10.0686 14.8688C9.4438 15.4937 9.4438 16.5067 10.0686 17.1316L13.2686 20.3316C13.8935 20.9564 14.9065 20.9564 15.5314 20.3316L21.9314 13.9316Z" fill="white"/>
</svg>
